<?xml version="1.0" encoding="utf-8"?>
<!-- Generator: Adobe Illustrator 23.0.3, SVG Export Plug-In . SVG Version: 6.00 Build 0)  -->
<svg version="1.1" xmlns="http://www.w3.org/2000/svg" xmlns:xlink="http://www.w3.org/1999/xlink" x="0px" y="0px"
	 viewBox="0 0 91.37 11.05" style="enable-background:new 0 0 91.37 11.05;" xml:space="preserve">
<style type="text/css">
	.st0{fill:#FFFFFF;}
	.st1{fill:#EE1C4E;}
</style>
<g id="words">
	<g>
		<path class="st0" d="M4.93,9.44C4.88,9.66,4.8,9.86,4.67,10.05c-0.13,0.19-0.27,0.36-0.45,0.51c-0.17,0.15-0.37,0.27-0.59,0.35
			c-0.22,0.09-0.46,0.13-0.71,0.13c-0.95,0-1.68-0.3-2.18-0.9C0.25,9.54,0,8.62,0,7.38c0-0.64,0.09-1.19,0.26-1.67
			S0.68,4.83,0.99,4.5C1.3,4.17,1.68,3.92,2.13,3.76C2.57,3.6,3.06,3.51,3.6,3.51c0.17,0,0.32,0,0.44,0.01
			c0.12,0.01,0.23,0.02,0.33,0.04c0.1,0.01,0.2,0.04,0.29,0.07c0.09,0.03,0.19,0.07,0.31,0.11V1.19l-1.1-0.12V0.52
			C4.01,0.46,4.2,0.41,4.43,0.36c0.24-0.05,0.48-0.09,0.75-0.14S5.69,0.14,5.94,0.1C6.2,0.06,6.4,0.03,6.57,0h0.49v9.85l0.95,0.12
			v0.51c-0.14,0.07-0.31,0.13-0.52,0.19c-0.21,0.06-0.43,0.11-0.67,0.16c-0.23,0.05-0.46,0.09-0.67,0.12
			c-0.22,0.03-0.4,0.06-0.54,0.08H5.12L4.99,9.44H4.93z M3.62,9.89c0.34,0,0.62-0.11,0.85-0.32C4.7,9.36,4.87,9,4.98,8.49V4.6
			C4.85,4.52,4.69,4.46,4.51,4.41C4.32,4.36,4.08,4.34,3.8,4.34c-0.56,0-0.96,0.25-1.2,0.76C2.36,5.6,2.24,6.34,2.24,7.3
			c0,0.78,0.11,1.41,0.32,1.88C2.77,9.66,3.12,9.89,3.62,9.89z"/>
		<path class="st0" d="M15.01,8.78c0,0.21,0,0.4,0.01,0.55c0,0.15,0.02,0.32,0.04,0.49l1,0.14v0.51c-0.12,0.06-0.27,0.12-0.47,0.17
			c-0.2,0.06-0.4,0.11-0.62,0.17c-0.22,0.05-0.43,0.1-0.64,0.13c-0.21,0.03-0.4,0.06-0.56,0.08h-0.49c-0.1-0.22-0.15-0.44-0.17-0.67
			c-0.02-0.22-0.03-0.49-0.04-0.81h-0.07c-0.05,0.19-0.13,0.38-0.25,0.56c-0.12,0.18-0.26,0.34-0.44,0.48
			c-0.18,0.14-0.39,0.25-0.63,0.34c-0.24,0.09-0.51,0.13-0.81,0.13c-0.32,0-0.61-0.05-0.88-0.14c-0.27-0.1-0.51-0.23-0.71-0.4
			c-0.2-0.17-0.36-0.38-0.48-0.63C8.66,9.63,8.61,9.35,8.61,9.04c0-0.43,0.08-0.79,0.25-1.07c0.16-0.28,0.42-0.51,0.77-0.69
			c0.35-0.18,0.81-0.31,1.36-0.4S12.21,6.74,13,6.7c0.08-0.83,0.04-1.44-0.1-1.82c-0.14-0.39-0.46-0.58-0.94-0.58
			c-0.3,0-0.57,0.05-0.82,0.14l-0.68,1.74H9.82C9.74,6.06,9.67,5.93,9.6,5.78C9.52,5.63,9.46,5.47,9.39,5.3
			C9.33,5.13,9.28,4.96,9.24,4.79C9.19,4.61,9.16,4.45,9.14,4.28c0.37-0.25,0.84-0.45,1.42-0.59c0.58-0.14,1.19-0.22,1.84-0.22
			c0.55,0,1,0.06,1.35,0.18c0.35,0.12,0.62,0.28,0.82,0.49c0.2,0.21,0.33,0.45,0.41,0.73c0.08,0.28,0.12,0.58,0.12,0.9
			c0,0.58-0.01,1.1-0.04,1.57C15.03,7.81,15.01,8.29,15.01,8.78z M11.76,9.89c0.2,0,0.38-0.04,0.52-0.12
			c0.14-0.08,0.27-0.17,0.37-0.27c0.1-0.11,0.18-0.22,0.23-0.35c0.05-0.12,0.09-0.24,0.12-0.33V7.38c-0.45,0.01-0.82,0.04-1.11,0.09
			c-0.29,0.05-0.52,0.13-0.68,0.24c-0.16,0.11-0.28,0.25-0.34,0.42c-0.06,0.17-0.09,0.37-0.09,0.62c0,0.37,0.09,0.65,0.26,0.85
			C11.21,9.79,11.45,9.89,11.76,9.89z"/>
		<path class="st0" d="M16.39,4.01c0.37-0.24,0.75-0.41,1.16-0.51V2.33c0.08-0.06,0.27-0.14,0.57-0.25c0.3-0.11,0.64-0.2,1.02-0.27
			h0.49v1.84h1.91v0.94h-1.91v3.73c0,0.6,0.07,1.01,0.22,1.24c0.15,0.23,0.4,0.35,0.74,0.35c0.17,0,0.37-0.01,0.59-0.04
			c0.22-0.02,0.42-0.07,0.6-0.14l0.1,0.48c-0.09,0.09-0.21,0.18-0.38,0.27s-0.36,0.19-0.58,0.27c-0.22,0.09-0.45,0.16-0.71,0.22
			c-0.26,0.06-0.52,0.09-0.8,0.09c-0.63,0-1.09-0.16-1.4-0.49c-0.31-0.33-0.46-0.85-0.46-1.58V4.58h-1.16V4.01z"/>
		<path class="st0" d="M28.84,8.78c0,0.21,0,0.4,0.01,0.55c0,0.15,0.02,0.32,0.04,0.49l1,0.14v0.51c-0.12,0.06-0.27,0.12-0.47,0.17
			c-0.2,0.06-0.4,0.11-0.62,0.17c-0.22,0.05-0.43,0.1-0.64,0.13c-0.21,0.03-0.4,0.06-0.56,0.08h-0.49c-0.1-0.22-0.15-0.44-0.17-0.67
			c-0.02-0.22-0.03-0.49-0.04-0.81H26.8c-0.05,0.19-0.13,0.38-0.25,0.56c-0.12,0.18-0.26,0.34-0.44,0.48
			c-0.18,0.14-0.39,0.25-0.63,0.34c-0.24,0.09-0.51,0.13-0.81,0.13c-0.32,0-0.61-0.05-0.88-0.14c-0.27-0.1-0.51-0.23-0.71-0.4
			c-0.2-0.17-0.36-0.38-0.48-0.63c-0.12-0.25-0.17-0.52-0.17-0.83c0-0.43,0.08-0.79,0.25-1.07c0.16-0.28,0.42-0.51,0.77-0.69
			c0.35-0.18,0.81-0.31,1.36-0.4c0.55-0.09,1.23-0.15,2.02-0.19c0.08-0.83,0.04-1.44-0.1-1.82c-0.14-0.39-0.46-0.58-0.94-0.58
			c-0.3,0-0.57,0.05-0.82,0.14l-0.68,1.74h-0.64c-0.08-0.12-0.15-0.25-0.22-0.4c-0.07-0.15-0.14-0.31-0.2-0.48
			c-0.06-0.17-0.12-0.34-0.16-0.51c-0.04-0.17-0.07-0.34-0.09-0.51c0.37-0.25,0.84-0.45,1.42-0.59c0.58-0.14,1.19-0.22,1.84-0.22
			c0.55,0,1,0.06,1.35,0.18c0.35,0.12,0.62,0.28,0.82,0.49c0.2,0.21,0.33,0.45,0.41,0.73c0.08,0.28,0.12,0.58,0.12,0.9
			c0,0.58-0.01,1.1-0.04,1.57C28.85,7.81,28.84,8.29,28.84,8.78z M25.59,9.89c0.2,0,0.38-0.04,0.52-0.12
			c0.14-0.08,0.27-0.17,0.37-0.27c0.1-0.11,0.18-0.22,0.23-0.35c0.05-0.12,0.09-0.24,0.12-0.33V7.38c-0.45,0.01-0.82,0.04-1.11,0.09
			c-0.29,0.05-0.52,0.13-0.68,0.24c-0.16,0.11-0.28,0.25-0.34,0.42C24.63,8.29,24.6,8.5,24.6,8.74c0,0.37,0.09,0.65,0.26,0.85
			S25.28,9.89,25.59,9.89z"/>
		<path class="st0" d="M37.91,7.84h0.59c0.04,0.15,0.07,0.34,0.11,0.56c0.03,0.22,0.06,0.45,0.09,0.69
			c0.02,0.25,0.04,0.49,0.05,0.73c0.01,0.24,0.01,0.46,0.01,0.65c-0.34,0.21-0.76,0.36-1.27,0.45c-0.51,0.09-1.02,0.13-1.55,0.13
			c-0.8,0-1.53-0.1-2.18-0.3c-0.65-0.2-1.21-0.51-1.66-0.94c-0.46-0.43-0.81-0.97-1.06-1.63c-0.25-0.66-0.38-1.45-0.38-2.38
			c0-0.92,0.14-1.7,0.41-2.36c0.27-0.66,0.64-1.2,1.11-1.63c0.46-0.42,1-0.74,1.61-0.93c0.61-0.2,1.26-0.3,1.93-0.3
			c0.64,0,1.21,0.05,1.73,0.14c0.52,0.09,0.94,0.21,1.27,0.37c0,0.15-0.01,0.35-0.02,0.59c-0.01,0.24-0.04,0.49-0.07,0.76
			c-0.03,0.27-0.07,0.53-0.12,0.78s-0.08,0.47-0.12,0.64h-0.61l-0.8-2.18c-0.09-0.05-0.23-0.09-0.42-0.12
			c-0.19-0.03-0.39-0.04-0.59-0.04c-0.4,0-0.77,0.08-1.11,0.24c-0.35,0.16-0.66,0.41-0.93,0.76c-0.27,0.35-0.48,0.79-0.64,1.34
			c-0.15,0.54-0.23,1.2-0.23,1.96c0,1.38,0.27,2.44,0.82,3.18c0.55,0.74,1.3,1.11,2.24,1.11c0.27,0,0.5-0.02,0.69-0.06
			c0.19-0.04,0.32-0.1,0.38-0.18L37.91,7.84z"/>
		<path class="st0" d="M39.67,7.26c0-0.59,0.09-1.12,0.27-1.58c0.18-0.47,0.43-0.87,0.77-1.19c0.33-0.33,0.74-0.58,1.21-0.75
			c0.47-0.17,1.01-0.26,1.61-0.26c0.68,0,1.26,0.09,1.74,0.28c0.49,0.19,0.89,0.45,1.2,0.78c0.31,0.33,0.54,0.73,0.69,1.2
			c0.14,0.47,0.22,0.98,0.22,1.53c0,0.59-0.09,1.12-0.26,1.58c-0.17,0.47-0.43,0.87-0.76,1.19c-0.33,0.33-0.74,0.58-1.22,0.75
			c-0.48,0.17-1.01,0.26-1.61,0.26c-0.66,0-1.22-0.09-1.71-0.28c-0.48-0.19-0.88-0.45-1.2-0.78c-0.32-0.33-0.55-0.73-0.71-1.2
			C39.75,8.32,39.67,7.81,39.67,7.26z"/>
		<path class="st0" d="M56.41,10.88h-3.62v-0.55c0.1-0.06,0.2-0.12,0.33-0.18c0.12-0.06,0.25-0.12,0.4-0.17V7.09
			c0-0.44-0.01-0.82-0.04-1.13c-0.02-0.31-0.08-0.56-0.15-0.76c-0.08-0.2-0.18-0.34-0.32-0.44c-0.14-0.09-0.31-0.14-0.52-0.14
			c-0.31,0-0.58,0.12-0.8,0.36c-0.23,0.24-0.39,0.55-0.5,0.94v4.06c0.26,0.08,0.5,0.19,0.72,0.35v0.55h-3.76v-0.55
			c0.13-0.07,0.28-0.13,0.45-0.19s0.33-0.11,0.51-0.16V4.66l-0.95-0.12V3.99c0.15-0.07,0.34-0.13,0.57-0.19
			c0.23-0.06,0.46-0.11,0.7-0.15c0.24-0.04,0.47-0.08,0.7-0.11s0.42-0.05,0.57-0.07h0.49v1.63h0.01c0.15-0.45,0.43-0.84,0.82-1.16
			c0.39-0.32,0.86-0.48,1.41-0.48c0.23,0,0.46,0.02,0.68,0.07c0.22,0.05,0.43,0.14,0.61,0.27c0.19,0.13,0.35,0.31,0.48,0.54
			c0.14,0.23,0.23,0.53,0.29,0.9c0.17-0.53,0.46-0.96,0.87-1.29c0.41-0.33,0.9-0.49,1.48-0.49c0.36,0,0.67,0.05,0.95,0.14
			s0.51,0.25,0.69,0.49c0.19,0.23,0.33,0.55,0.43,0.94c0.1,0.4,0.14,0.9,0.14,1.51v3.44c0.33,0.06,0.65,0.17,0.95,0.35v0.55h-3.76
			v-0.55c0.22-0.14,0.46-0.26,0.72-0.35V6.83c0-0.75-0.07-1.31-0.21-1.67c-0.14-0.36-0.44-0.54-0.9-0.54
			c-0.35,0-0.62,0.13-0.82,0.39c-0.2,0.26-0.34,0.61-0.44,1.04v3.92c0.16,0.05,0.31,0.1,0.44,0.16c0.13,0.06,0.25,0.12,0.37,0.19
			V10.88z"/>
		<path class="st0" d="M65.38,5.31c-0.12,0.06-0.25,0.15-0.4,0.29s-0.29,0.36-0.42,0.67v3.71c0.19,0.02,0.39,0.06,0.58,0.11
			c0.19,0.05,0.39,0.13,0.58,0.24v0.55h-4.19v-0.55c0.17-0.1,0.34-0.17,0.49-0.22c0.15-0.05,0.31-0.09,0.46-0.13V4.66l-0.95-0.12
			V3.99c0.15-0.07,0.34-0.13,0.57-0.19c0.23-0.06,0.46-0.11,0.7-0.15c0.24-0.04,0.47-0.08,0.7-0.11s0.42-0.05,0.57-0.07h0.49V5.4
			h0.06c0.08-0.21,0.19-0.43,0.34-0.67c0.15-0.23,0.33-0.44,0.53-0.64c0.2-0.19,0.42-0.35,0.67-0.46c0.24-0.12,0.49-0.17,0.75-0.16
			c0.11,0.14,0.2,0.33,0.27,0.57c0.08,0.25,0.14,0.48,0.19,0.7v0.56H65.38z"/>
		<path class="st0" d="M74.21,8.78c0,0.21,0,0.4,0.01,0.55c0,0.15,0.02,0.32,0.04,0.49l1,0.14v0.51c-0.12,0.06-0.27,0.12-0.47,0.17
			c-0.2,0.06-0.4,0.11-0.62,0.17c-0.22,0.05-0.43,0.1-0.64,0.13c-0.21,0.03-0.4,0.06-0.56,0.08h-0.49c-0.1-0.22-0.15-0.44-0.17-0.67
			c-0.02-0.22-0.03-0.49-0.04-0.81h-0.07c-0.05,0.19-0.13,0.38-0.25,0.56c-0.12,0.18-0.26,0.34-0.44,0.48
			c-0.18,0.14-0.39,0.25-0.63,0.34c-0.24,0.09-0.51,0.13-0.81,0.13c-0.32,0-0.61-0.05-0.88-0.14c-0.27-0.1-0.51-0.23-0.71-0.4
			c-0.2-0.17-0.36-0.38-0.48-0.63c-0.12-0.25-0.17-0.52-0.17-0.83c0-0.43,0.08-0.79,0.25-1.07c0.16-0.28,0.42-0.51,0.77-0.69
			c0.35-0.18,0.81-0.31,1.36-0.4c0.55-0.09,1.23-0.15,2.02-0.19c0.08-0.83,0.04-1.44-0.1-1.82c-0.14-0.39-0.46-0.58-0.94-0.58
			c-0.3,0-0.57,0.05-0.82,0.14l-0.68,1.74h-0.64c-0.08-0.12-0.15-0.25-0.22-0.4c-0.07-0.15-0.14-0.31-0.2-0.48
			c-0.06-0.17-0.12-0.34-0.16-0.51c-0.04-0.17-0.07-0.34-0.09-0.51c0.37-0.25,0.84-0.45,1.42-0.59c0.58-0.14,1.19-0.22,1.84-0.22
			c0.55,0,1,0.06,1.35,0.18c0.35,0.12,0.62,0.28,0.82,0.49c0.2,0.21,0.33,0.45,0.41,0.73c0.08,0.28,0.12,0.58,0.12,0.9
			c0,0.58-0.01,1.1-0.04,1.57C74.23,7.81,74.21,8.29,74.21,8.78z M70.96,9.89c0.2,0,0.38-0.04,0.52-0.12
			c0.14-0.08,0.27-0.17,0.37-0.27c0.1-0.11,0.18-0.22,0.23-0.35c0.05-0.12,0.09-0.24,0.12-0.33V7.38c-0.45,0.01-0.82,0.04-1.11,0.09
			c-0.29,0.05-0.52,0.13-0.68,0.24c-0.16,0.11-0.28,0.25-0.34,0.42c-0.06,0.17-0.09,0.37-0.09,0.62c0,0.37,0.09,0.65,0.26,0.85
			C70.41,9.79,70.65,9.89,70.96,9.89z"/>
		<path class="st0" d="M80.85,9.44c-0.05,0.21-0.13,0.41-0.26,0.61c-0.13,0.19-0.27,0.36-0.45,0.51c-0.17,0.15-0.37,0.27-0.59,0.35
			c-0.22,0.09-0.46,0.13-0.71,0.13c-0.95,0-1.68-0.3-2.18-0.9c-0.5-0.6-0.75-1.53-0.75-2.77c0-0.64,0.09-1.19,0.26-1.67
			s0.42-0.88,0.73-1.21c0.31-0.33,0.69-0.57,1.14-0.74c0.44-0.16,0.94-0.25,1.47-0.25c0.17,0,0.32,0,0.44,0.01
			c0.12,0.01,0.23,0.02,0.33,0.04c0.1,0.01,0.2,0.04,0.29,0.07c0.09,0.03,0.19,0.07,0.31,0.11V1.19l-1.1-0.12V0.52
			c0.13-0.06,0.32-0.11,0.56-0.16c0.24-0.05,0.48-0.09,0.75-0.14c0.26-0.04,0.52-0.08,0.77-0.12c0.25-0.04,0.46-0.07,0.62-0.1h0.49
			v9.85l0.95,0.12v0.51c-0.14,0.07-0.31,0.13-0.52,0.19c-0.21,0.06-0.43,0.11-0.67,0.16c-0.23,0.05-0.46,0.09-0.67,0.12
			c-0.22,0.03-0.4,0.06-0.54,0.08h-0.49l-0.13-1.58H80.85z M79.54,9.89c0.34,0,0.62-0.11,0.85-0.32c0.23-0.21,0.4-0.57,0.51-1.08
			V4.6c-0.13-0.08-0.28-0.14-0.47-0.19c-0.19-0.05-0.42-0.07-0.7-0.07c-0.56,0-0.96,0.25-1.2,0.76c-0.24,0.51-0.36,1.24-0.36,2.21
			c0,0.78,0.11,1.41,0.32,1.88C78.69,9.66,79.04,9.89,79.54,9.89z"/>
		<path class="st0" d="M91.17,9.66c-0.08,0.16-0.2,0.33-0.37,0.5c-0.17,0.17-0.38,0.32-0.62,0.45c-0.25,0.13-0.53,0.24-0.85,0.32
			c-0.32,0.08-0.67,0.12-1.05,0.12c-0.6,0-1.13-0.09-1.59-0.27c-0.46-0.18-0.85-0.43-1.16-0.77c-0.31-0.33-0.54-0.73-0.7-1.19
			c-0.16-0.46-0.24-0.98-0.24-1.56c0-1.23,0.32-2.17,0.97-2.82c0.65-0.65,1.54-0.97,2.69-0.97c0.49,0,0.95,0.07,1.38,0.2
			c0.43,0.14,0.79,0.36,1.07,0.67c0.28,0.31,0.48,0.71,0.59,1.21c0.11,0.5,0.1,1.11-0.02,1.84h-4.44c0.01,0.76,0.2,1.37,0.59,1.82
			c0.38,0.45,0.94,0.68,1.69,0.68c0.32,0,0.65-0.05,0.99-0.14c0.34-0.1,0.61-0.22,0.8-0.38L91.17,9.66z M88.18,4.3
			c-0.19,0-0.36,0.03-0.51,0.1c-0.15,0.07-0.28,0.19-0.39,0.37c-0.11,0.18-0.2,0.42-0.27,0.72c-0.07,0.3-0.11,0.69-0.14,1.15h2.31
			c0.07-0.75,0.02-1.33-0.13-1.74C88.9,4.5,88.61,4.3,88.18,4.3z"/>
	</g>
</g>
<g id="star">
	<polygon class="st1" points="43.52,4.55 44.36,6.24 46.22,6.51 44.87,7.83 45.19,9.69 43.52,8.81 41.85,9.69 42.17,7.83 
		40.82,6.51 42.69,6.24 	"/>
</g>
<g id="Layer_3">
</g>
</svg>
